<svg xmlns="http://www.w3.org/2000/svg" width="1206" height="1500" viewBox="0 0 1206 1500">
  <rect width="1206" height="1500" fill="#fafcfa"/>
  <!-- post header -->
  <circle cx="90" cy="80" r="44" fill="#dbe3db"/>
  <rect x="160" y="56" width="290" height="24" rx="12" fill="#dbe3db"/>
  <rect x="160" y="92" width="170" height="18" rx="9" fill="#e6eee6"/>
  <!-- photo: toast, glasses raised -->
  <rect x="0" y="160" width="1206" height="1060" fill="#f2f6f2"/>
  <ellipse cx="603" cy="1080" rx="420" ry="60" fill="#dbe3db" opacity="0.6"/>
  <g fill="#1e3d2f">
    <circle cx="500" cy="640" r="56"/>
    <path d="M450 702h100l20 300H430z"/>
    <circle cx="720" cy="650" r="52"/>
    <path d="M674 708h92l18 294H656z"/>
  </g>
  <!-- raised glasses -->
  <g stroke="#b8912e" stroke-width="10" stroke-linecap="round" fill="none">
    <path d="M560 540l30-80M590 460h50l-24 64z"/>
    <path d="M660 545l-24-82M612 463h52l-22 62z"/>
  </g>
  <circle cx="614" cy="430" r="14" fill="#b8912e" opacity="0.7"/>
  <!-- action row -->
  <path d="M80 1290c-18-24-58-18-58 14 0 24 34 44 58 62 24-18 58-38 58-62 0-32-40-38-58-14z" fill="#1e3d2f"/>
  <circle cx="220" cy="1320" r="34" fill="none" stroke="#1e3d2f" stroke-width="8"/>
  <path d="M330 1290l50 30-50 30z" fill="none" stroke="#1e3d2f" stroke-width="8" stroke-linejoin="round"/>
  <!-- likes + caption -->
  <rect x="60" y="1390" width="230" height="22" rx="11" fill="#dbe3db"/>
  <rect x="60" y="1430" width="560" height="20" rx="10" fill="#e6eee6"/>
  <text x="900" y="1408" font-family="Georgia, serif" font-size="30" fill="#5c7267" font-style="italic">placeholder</text>
</svg>
